<svg width="123" height="48" viewBox="0 0 123 48" fill="none" xmlns="http://www.w3.org/2000/svg">
<g clip-path="url(#clip0_3_186)">
<path d="M41.2382 30.4543L35.2988 0.375977H50.5053L44.566 30.4543H41.2382Z" fill="#FF5601"/>
<path d="M0 48V37.5144H2.86438V48H0ZM13.2688 37.5144H9.9411V48H12.8055V44.7833C12.8055 43.154 12.7634 42.3185 12.6791 41.3577H12.7212C13.1003 42.1932 13.5637 43.154 14.5325 44.6162L16.7229 48H20.0507V37.5144H17.1863V40.7311C17.1863 42.3603 17.2284 43.1958 17.3127 44.1567H17.2705C16.8914 43.3211 16.4281 42.3603 15.4592 40.8982L13.2688 37.5144ZM35.6363 37.5144H26.1586V39.8956H29.4863V48H32.3507V39.8956H35.6784V37.5144H35.6363ZM41.7021 48H49.9582V45.6188H44.5243V43.906H49.6212V41.5248H44.5243V39.9373H49.9582V37.5561H41.7021V48.0418V48ZM63.5219 44.3655C65.4596 44.1149 66.7233 42.7363 66.7233 40.9399C66.7233 39.1436 65.2068 37.5144 62.9743 37.5144H56.9507V48H59.8151V44.4073H60.0257L63.4798 48H67.1866L63.564 44.3655H63.5219ZM59.7729 42.1514V39.8956H62.7637C63.5219 39.8956 63.8168 40.4386 63.8168 41.0235C63.8168 41.6084 63.5219 42.1514 62.7637 42.1514H59.7729ZM76.6644 37.5144H73.3366V48H76.201V44.7833C76.201 43.154 76.1589 42.3185 76.0747 41.3577H76.1168C76.4959 42.1932 76.9592 43.154 77.9281 44.6162L80.1185 48H83.4462V37.5144H80.5818V40.7311C80.5818 42.3603 80.624 43.1958 80.7082 44.1567H80.6661C80.287 43.3211 79.8236 42.3603 78.8548 40.8982L76.6644 37.5144ZM90.5651 48H98.8633V45.6188H93.4294V43.906H98.5264V41.5248H93.4294V39.9373H98.8633V37.5561H90.5651V48.0418V48ZM114.238 37.5144H104.761V39.8956H108.088V48H110.953V39.8956H114.28V37.5144H114.238ZM6.90822 19.2585V30.4125H0V0.375979H16.2175C22.7045 0.375979 26.7904 4.2611 26.7904 9.81723C26.7904 15.3734 22.7466 19.0914 16.6387 19.2585L27.8856 30.4125H18.8291L8.04555 19.2585H6.95034H6.90822ZM16.2175 13.7023C18.1551 13.7023 19.8822 12.6162 19.8822 9.90078C19.8822 7.18538 18.1551 6.18277 16.2175 6.18277H6.95034V13.7023H16.2175ZM71.6517 18.6736C74.8531 19.0914 77.212 19.4674 77.212 22.0574C77.212 24.6475 75.1901 25.859 71.1462 25.859C67.1024 25.859 65.1647 24.4804 65.0383 21.5144H58.2144C58.425 26.9869 63.1007 30.7885 71.1462 30.7885C79.1918 30.7885 83.8675 26.9034 83.8675 21.4308C83.8675 15.9582 78.7705 13.1593 72.8733 12.2402L70.9777 11.9478C67.5657 11.4465 65.4175 10.8198 65.4175 8.31332C65.4175 5.80679 66.5969 4.97128 70.9356 4.97128C75.2743 4.97128 76.2853 6.4752 76.4116 8.64752H83.2356C82.9408 4.34465 79.1918 0 70.9356 0C62.6794 0 58.8462 3.80157 58.8462 8.98172C58.8462 14.1619 63.564 17.6292 69.7562 18.423L71.6517 18.6736ZM91.3654 30.4543H114.238V24.6475H98.2736V18.0052H113.396V12.1984H98.2736V6.18277H114.238V0.375979H91.3654V30.4543ZM117.819 3.42559C117.524 3.42559 117.313 3.42559 117.103 3.30026C116.892 3.21671 116.766 3.09138 116.681 2.96606C116.597 2.84073 116.513 2.63185 116.513 2.46475H117.229C117.229 2.59008 117.271 2.67363 117.313 2.7154C117.355 2.79896 117.44 2.84073 117.524 2.84073C117.608 2.84073 117.735 2.88251 117.861 2.88251C117.987 2.88251 118.029 2.88251 118.072 2.88251C118.156 2.88251 118.198 2.88251 118.24 2.84073C118.282 2.84073 118.324 2.79896 118.366 2.75718C118.409 2.7154 118.366 2.67363 118.366 2.59008C118.366 2.50653 118.366 2.46475 118.324 2.42298C118.324 2.3812 118.24 2.33943 118.198 2.29765C118.156 2.29765 118.072 2.25587 117.945 2.2141L117.398 2.08877C117.229 2.08877 117.061 2.00522 116.934 1.92167C116.808 1.83812 116.724 1.75457 116.639 1.67102C116.555 1.58747 116.555 1.42037 116.555 1.29504C116.555 1.16971 116.555 1.04439 116.639 0.91906C116.681 0.793734 116.766 0.710183 116.892 0.626632C117.018 0.543081 117.145 0.501305 117.271 0.45953C117.44 0.45953 117.608 0.417755 117.777 0.417755C117.945 0.417755 118.24 0.417755 118.451 0.543081C118.619 0.626632 118.788 0.710183 118.872 0.835509C118.956 0.960835 119.04 1.12794 119.04 1.33681H118.324C118.324 1.25326 118.282 1.16971 118.24 1.08616C118.198 1.04439 118.114 1.00261 118.072 0.960835C117.987 0.960835 117.903 0.960835 117.777 0.960835C117.65 0.960835 117.566 0.960835 117.524 0.960835C117.44 0.960835 117.398 1.00261 117.355 1.08616C117.355 1.12794 117.313 1.16971 117.313 1.25326C117.313 1.33681 117.313 1.37859 117.355 1.42037C117.355 1.46214 117.44 1.50392 117.482 1.54569C117.524 1.54569 117.608 1.58747 117.692 1.62924L118.156 1.75457C118.324 1.79634 118.493 1.83812 118.619 1.92167C118.746 2.00522 118.872 2.08877 118.956 2.2141C119.04 2.33943 119.083 2.46475 119.083 2.67363C119.083 2.88251 119.083 2.96606 118.998 3.04961C118.956 3.17493 118.872 3.25849 118.746 3.34204C118.619 3.42559 118.493 3.46736 118.324 3.50914C118.156 3.50914 117.987 3.55091 117.777 3.55091L117.819 3.42559ZM119.462 3.38381V0.417755H120.599L121.147 2.25587V2.46475H121.231V2.25587C121.273 2.25587 121.821 0.417755 121.821 0.417755H122.958V3.42559H122.284V1.00261L122.2 1.33681L121.61 3.38381H120.894L120.304 1.29504L120.22 1.00261V3.38381H119.546H119.462Z" fill="#1C1C1C"/>
</g>
<defs>
<clipPath id="clip0_3_186">
<rect width="123" height="48" fill="white"/>
</clipPath>
</defs>
</svg>
